<?xml version="1.0" encoding="utf-8"?>
<!-- Generator: Adobe Illustrator 16.0.0, SVG Export Plug-In . SVG Version: 6.00 Build 0)  -->
<!DOCTYPE svg PUBLIC "-//W3C//DTD SVG 1.1//EN" "http://www.w3.org/Graphics/SVG/1.1/DTD/svg11.dtd">
<svg version="1.1" id="Layer_1" xmlns="http://www.w3.org/2000/svg" xmlns:xlink="http://www.w3.org/1999/xlink" x="0px" y="0px"
	 width="103.531px" height="109.48px" viewBox="0 0 103.531 109.48" enable-background="new 0 0 103.531 109.48"
	 xml:space="preserve">
<path fill-rule="evenodd" clip-rule="evenodd" fill="#F15E55" d="M64.038,97.436c8.99-0.533,16.42-3.881,20.349-12.654
	c3.36-7.502,1.725-14.366-3.537-20.383c-5.153-5.893-14.962-6.646-20.766-1.535c-1.08,0.95-1.176,3.017-1.726,4.568
	c1.568-0.026,3.44,0.499,4.651-0.172c5.619-3.111,11.044-2.599,14.305,1.734c3.26,4.332,2.278,9.908-2.578,14.17
	c-5.186,4.55-11.223,4.922-17.35,2.742c-5.567-1.98-8.987-6.203-9.874-12.15c-0.443-2.972-0.418-5.587,2.809-7.698
	c3.513-2.298,4.24-6.326,3.005-10.301c-1.624-5.225-3.668-10.317-5.349-15.525c-0.604-1.871-0.998-3.934-0.877-5.87
	c0.076-1.208,1.293-2.344,1.999-3.512c1.046,1.023,2.81,1.925,3.008,3.092c0.696,4.1,2.241,8.239,6.375,8.608
	c6.685,0.598,12.221,2.691,17.023,7.291c0.519,0.497,2.669,0.074,3.371-0.62c0.737-0.729,0.792-2.294,0.837-3.504
	c0.019-0.507-0.665-1.159-1.177-1.55c-7.531-5.738-8.264-13.637-7.688-22.298c0.48-7.215-0.486-7.716-7.148-5.696
	c-4.141,1.254-7.109-0.334-9.455-3.639c-3.214-4.527-4.392-4.66-7.651-0.574c-3.406,4.27-7.491,5.604-12.809,3.943
	c-4.518-1.411-6.495,0.465-5.318,5.04c1.483,5.771-0.674,9.748-5.467,12.591c-3.583,2.124-3.582,4.203-0.691,7.041
	c5.528,5.428,5.655,11.218,0.254,16.529c-2.933,2.885-2.779,4.999,0.57,7.151c4.094,2.633,5.211,6.284,3.524,10.795
	c-1.134,3.029-0.832,5.194,2.906,5.835c4.442,0.762,6.217,3.51,5.455,7.901c-0.471,2.715,0.171,4.567,3.25,5.016
	c7.557,1.101,15.102,2.282,22.655,3.407C61.908,97.357,62.915,97.359,64.038,97.436z"/>
</svg>
